<svg xmlns="http://www.w3.org/2000/svg" xmlns:xlink="http://www.w3.org/1999/xlink" width="500" zoomAndPan="magnify" viewBox="0 0 375 374.999991" height="500" preserveAspectRatio="xMidYMid meet" version="1.0"><defs><g/><clipPath id="bc04245970"><path d="M 38 103 L 170 103 L 170 277 L 38 277 Z M 38 103 " clip-rule="nonzero"/></clipPath><clipPath id="286f1d8440"><path d="M 6.085938 238.964844 L 89.878906 71.230469 L 173.746094 113.125 L 89.953125 280.859375 Z M 6.085938 238.964844 " clip-rule="nonzero"/></clipPath><clipPath id="5bd54ebac6"><path d="M 38 122 L 96 122 L 96 277 L 38 277 Z M 38 122 " clip-rule="nonzero"/></clipPath><clipPath id="15653b07a5"><path d="M 6.085938 238.964844 L 89.878906 71.230469 L 173.746094 113.125 L 89.953125 280.859375 Z M 6.085938 238.964844 " clip-rule="nonzero"/></clipPath></defs><g fill="#000000" fill-opacity="1"><g transform="translate(83.646399, 210.507627)"><g><path d="M 18.878906 0 C 39.117188 0 48.316406 -11.839844 48.316406 -27.199219 C 48.316406 -42.558594 39.039062 -54.398438 18.878906 -54.398438 L 5.917969 -54.398438 C 4.878906 -54.398438 4.320312 -53.835938 4.320312 -52.796875 L 4.320312 -1.601562 C 4.320312 -0.558594 4.878906 0 5.917969 0 Z M 16.320312 -43.515625 L 20 -43.515625 C 31.679688 -43.515625 36.316406 -36.238281 36.316406 -27.199219 C 36.316406 -18.160156 31.597656 -10.878906 20 -10.878906 L 16.320312 -10.878906 Z M 16.320312 -43.515625 "/></g></g></g><g fill="#000000" fill-opacity="1"><g transform="translate(134.121387, 210.507627)"><g><path d="M 31.277344 -53.117188 C 30.957031 -53.917969 30.316406 -54.398438 29.4375 -54.398438 L 22 -54.398438 C 21.117188 -54.398438 20.480469 -53.917969 20.160156 -53.117188 L -0.480469 1.601562 C 8.640625 0 15.558594 -5.320312 19.398438 -17.71875 C 21.199219 -13.679688 25.4375 -10.960938 31.917969 -10.960938 L 34.835938 -10.960938 L 37.996094 -1.28125 C 38.316406 -0.320312 38.878906 0 39.757812 0 L 49.277344 0 C 50.15625 0 50.71875 -0.480469 50.71875 -1.199219 C 50.71875 -1.359375 50.636719 -1.601562 50.558594 -1.839844 Z M 25.757812 -38.558594 L 31.597656 -20.796875 L 20.359375 -20.796875 Z M 25.757812 -38.558594 "/></g></g></g><g fill="#ff1616" fill-opacity="1"><g transform="translate(185.154205, 210.507627)"><g><path d="M 18.878906 0 C 39.117188 0 48.316406 -11.839844 48.316406 -27.199219 C 48.316406 -42.558594 39.039062 -54.398438 18.878906 -54.398438 L 5.917969 -54.398438 C 4.878906 -54.398438 4.320312 -53.835938 4.320312 -52.796875 L 4.320312 -1.601562 C 4.320312 -0.558594 4.878906 0 5.917969 0 Z M 16.320312 -43.515625 L 20 -43.515625 C 31.679688 -43.515625 36.316406 -36.238281 36.316406 -27.199219 C 36.316406 -18.160156 31.597656 -10.878906 20 -10.878906 L 16.320312 -10.878906 Z M 16.320312 -43.515625 "/></g></g></g><g fill="#ff1616" fill-opacity="1"><g transform="translate(235.629193, 210.507627)"><g><path d="M 22.71875 -36.558594 C 10.878906 -36.558594 2.160156 -29.117188 2.160156 -17.597656 C 2.160156 -5.917969 10.558594 1.28125 22.71875 1.28125 C 31.519531 1.28125 38.476562 -2.558594 41.277344 -10.558594 C 41.675781 -11.679688 41.039062 -12.398438 39.917969 -12.398438 L 31.039062 -12.398438 C 30.15625 -12.398438 29.679688 -11.917969 29.277344 -11.039062 C 28.316406 -8.878906 26 -7.28125 22.480469 -7.28125 C 18 -7.28125 15.199219 -10.480469 14.878906 -15.359375 L 40.636719 -15.359375 C 41.675781 -15.359375 42.238281 -15.917969 42.238281 -16.957031 L 42.238281 -18.398438 C 42.238281 -30.078125 33.4375 -36.558594 22.71875 -36.558594 Z M 15.039062 -21.839844 C 15.71875 -25.679688 17.878906 -28.398438 22.320312 -28.398438 C 26.558594 -28.398438 29.277344 -25.679688 29.519531 -21.839844 Z M 15.039062 -21.839844 "/></g></g></g><g fill="#ff1616" fill-opacity="1"><g transform="translate(280.18477, 210.507627)"><g><path d="M 26.558594 0 C 27.4375 0 28.078125 -0.480469 28.398438 -1.28125 L 41.597656 -36.078125 C 33.359375 -36.078125 28.078125 -31.996094 25.117188 -23.039062 L 20.796875 -10.078125 L 12.800781 -33.996094 C 12.480469 -34.878906 11.917969 -35.277344 11.039062 -35.277344 L 2.320312 -35.277344 C 1.121094 -35.277344 0.640625 -34.558594 1.039062 -33.4375 L 13.277344 -1.28125 C 13.597656 -0.480469 14.238281 0 15.117188 0 Z M 26.558594 0 "/></g></g></g><path stroke-linecap="butt" transform="matrix(3.005596, 0.000000000000000887, -0.000000000000000885, 3, 177.938138, 221.079213)" fill="none" stroke-linejoin="miter" d="M -0.000212409 -0.000362828 L 48.162546 -0.000362828 " stroke="#000000" stroke-width="1" stroke-opacity="1" stroke-miterlimit="4"/><path stroke-linecap="butt" transform="matrix(3.005596, 0.000000000000000887, -0.000000000000000885, 3, 177.938138, 244.829209)" fill="none" stroke-linejoin="miter" d="M -0.000212409 -0.000361241 L 48.162546 -0.000361241 " stroke="#000000" stroke-width="1" stroke-opacity="1" stroke-miterlimit="4"/><path stroke-linecap="butt" transform="matrix(2.994232, 0.000000000000001163, -0.000000000000001166, 3, 212.705381, 233.257602)" fill="none" stroke-linejoin="miter" d="M 0.000551166 0.0000700724 L 36.573476 0.0000700724 " stroke="#ff1616" stroke-width="1" stroke-opacity="1" stroke-miterlimit="4"/><g fill="#000000" fill-opacity="1"><g transform="translate(89.926405, 238.882602)"><g><path d="M 13.703125 0 L 10.734375 0 L 9.65625 -3.296875 L 4.1875 -3.296875 L 3.109375 0 L 0.21875 0 L 5.140625 -14.28125 L 8.765625 -14.28125 Z M 6.78125 -11.296875 L 4.953125 -5.671875 L 8.875 -5.671875 L 7.03125 -11.296875 Z M 6.78125 -11.296875 "/></g></g></g><g fill="#000000" fill-opacity="1"><g transform="translate(103.836984, 238.882602)"><g><path d="M 5.59375 4.578125 C 3.8125 4.578125 2.492188 4.316406 1.640625 3.796875 C 0.796875 3.273438 0.375 2.546875 0.375 1.609375 C 0.375 1.046875 0.554688 0.582031 0.921875 0.21875 C 1.285156 -0.144531 1.804688 -0.390625 2.484375 -0.515625 L 2.484375 -0.71875 C 2.117188 -0.9375 1.851562 -1.179688 1.6875 -1.453125 C 1.53125 -1.722656 1.453125 -2.035156 1.453125 -2.390625 C 1.453125 -3.253906 2.015625 -3.835938 3.140625 -4.140625 L 3.140625 -4.34375 C 2.566406 -4.675781 2.128906 -5.085938 1.828125 -5.578125 C 1.535156 -6.066406 1.390625 -6.660156 1.390625 -7.359375 C 1.390625 -8.078125 1.554688 -8.707031 1.890625 -9.25 C 2.222656 -9.789062 2.703125 -10.210938 3.328125 -10.515625 C 3.960938 -10.828125 4.722656 -10.984375 5.609375 -10.984375 C 6.515625 -10.984375 7.234375 -10.828125 7.765625 -10.515625 C 8.097656 -10.992188 8.289062 -11.546875 8.34375 -12.171875 L 8.546875 -12.3125 L 10.484375 -11.828125 C 10.429688 -11.316406 10.28125 -10.882812 10.03125 -10.53125 C 9.789062 -10.1875 9.421875 -9.875 8.921875 -9.59375 L 8.921875 -9.390625 C 9.523438 -8.847656 9.828125 -8.101562 9.828125 -7.15625 C 9.828125 -6.488281 9.660156 -5.890625 9.328125 -5.359375 C 8.992188 -4.835938 8.507812 -4.421875 7.875 -4.109375 C 7.238281 -3.804688 6.484375 -3.65625 5.609375 -3.65625 L 5.203125 -3.65625 C 4.941406 -3.675781 4.757812 -3.6875 4.65625 -3.6875 C 4.40625 -3.6875 4.210938 -3.617188 4.078125 -3.484375 C 3.941406 -3.347656 3.875 -3.175781 3.875 -2.96875 C 3.875 -2.738281 3.960938 -2.5625 4.140625 -2.4375 C 4.328125 -2.3125 4.59375 -2.242188 4.9375 -2.234375 L 7.359375 -2.140625 C 9.734375 -2.066406 10.921875 -1.039062 10.921875 0.9375 C 10.921875 1.632812 10.742188 2.253906 10.390625 2.796875 C 10.035156 3.335938 9.460938 3.769531 8.671875 4.09375 C 7.878906 4.414062 6.851562 4.578125 5.59375 4.578125 Z M 5.609375 -5.546875 C 6.128906 -5.546875 6.535156 -5.695312 6.828125 -6 C 7.128906 -6.3125 7.28125 -6.75 7.28125 -7.3125 C 7.28125 -7.882812 7.128906 -8.320312 6.828125 -8.625 C 6.535156 -8.925781 6.128906 -9.078125 5.609375 -9.078125 C 5.085938 -9.078125 4.679688 -8.925781 4.390625 -8.625 C 4.109375 -8.320312 3.96875 -7.882812 3.96875 -7.3125 C 3.96875 -6.738281 4.109375 -6.300781 4.390625 -6 C 4.679688 -5.695312 5.085938 -5.546875 5.609375 -5.546875 Z M 5.59375 2.609375 C 6.507812 2.609375 7.175781 2.476562 7.59375 2.21875 C 8.019531 1.957031 8.234375 1.617188 8.234375 1.203125 C 8.234375 0.859375 8.125 0.609375 7.90625 0.453125 C 7.695312 0.296875 7.359375 0.210938 6.890625 0.203125 L 4.75 0.09375 C 4.6875 0.09375 4.625 0.0859375 4.5625 0.078125 C 4.5 0.078125 4.4375 0.078125 4.375 0.078125 C 3.914062 0.078125 3.566406 0.175781 3.328125 0.375 C 3.097656 0.570312 2.984375 0.84375 2.984375 1.1875 C 2.984375 1.632812 3.195312 1.984375 3.625 2.234375 C 4.0625 2.484375 4.71875 2.609375 5.59375 2.609375 Z M 5.59375 2.609375 "/></g></g></g><g fill="#000000" fill-opacity="1"><g transform="translate(115.033779, 238.882602)"><g><path d="M 10.640625 -4.78125 L 3.734375 -4.75 C 3.804688 -3.820312 4.066406 -3.144531 4.515625 -2.71875 C 4.972656 -2.300781 5.597656 -2.09375 6.390625 -2.09375 C 7.003906 -2.09375 7.503906 -2.207031 7.890625 -2.4375 C 8.273438 -2.664062 8.582031 -3.015625 8.8125 -3.484375 L 9.03125 -3.484375 L 10.828125 -2.328125 C 10.472656 -1.578125 9.941406 -0.96875 9.234375 -0.5 C 8.523438 -0.03125 7.578125 0.203125 6.390625 0.203125 C 5.273438 0.203125 4.3125 -0.00390625 3.5 -0.421875 C 2.6875 -0.847656 2.0625 -1.476562 1.625 -2.3125 C 1.1875 -3.15625 0.96875 -4.175781 0.96875 -5.375 C 0.96875 -6.601562 1.195312 -7.632812 1.65625 -8.46875 C 2.125 -9.3125 2.75 -9.941406 3.53125 -10.359375 C 4.320312 -10.773438 5.207031 -10.984375 6.1875 -10.984375 C 7.71875 -10.984375 8.882812 -10.578125 9.6875 -9.765625 C 10.5 -8.960938 10.90625 -7.78125 10.90625 -6.21875 C 10.90625 -5.644531 10.882812 -5.203125 10.84375 -4.890625 Z M 8.328125 -6.53125 C 8.296875 -7.34375 8.101562 -7.9375 7.75 -8.3125 C 7.394531 -8.6875 6.875 -8.875 6.1875 -8.875 C 4.820312 -8.875 4.019531 -8.09375 3.78125 -6.53125 Z M 8.328125 -6.53125 "/></g></g></g><g fill="#000000" fill-opacity="1"><g transform="translate(126.738189, 238.882602)"><g><path d="M 1.546875 0 L 1.546875 -10.765625 L 4.15625 -10.765625 L 4.15625 -9.1875 L 4.359375 -9.140625 C 5.023438 -10.367188 6.113281 -10.984375 7.625 -10.984375 C 8.863281 -10.984375 9.773438 -10.644531 10.359375 -9.96875 C 10.941406 -9.289062 11.234375 -8.300781 11.234375 -7 L 11.234375 0 L 8.53125 0 L 8.53125 -6.671875 C 8.53125 -7.390625 8.382812 -7.90625 8.09375 -8.21875 C 7.8125 -8.53125 7.351562 -8.6875 6.71875 -8.6875 C 5.945312 -8.6875 5.34375 -8.4375 4.90625 -7.9375 C 4.476562 -7.4375 4.265625 -6.648438 4.265625 -5.578125 L 4.265625 0 Z M 1.546875 0 "/></g></g></g><g fill="#000000" fill-opacity="1"><g transform="translate(139.350447, 238.882602)"><g><path d="M 6.28125 0.203125 C 5.238281 0.203125 4.316406 -0.0078125 3.515625 -0.4375 C 2.710938 -0.875 2.085938 -1.507812 1.640625 -2.34375 C 1.191406 -3.1875 0.96875 -4.195312 0.96875 -5.375 C 0.96875 -6.5625 1.191406 -7.570312 1.640625 -8.40625 C 2.085938 -9.25 2.707031 -9.890625 3.5 -10.328125 C 4.300781 -10.765625 5.210938 -10.984375 6.234375 -10.984375 C 8.503906 -10.984375 9.957031 -10.15625 10.59375 -8.5 L 8.734375 -7.171875 L 8.53125 -7.171875 C 8.3125 -7.679688 8.023438 -8.0625 7.671875 -8.3125 C 7.316406 -8.5625 6.835938 -8.6875 6.234375 -8.6875 C 5.453125 -8.6875 4.84375 -8.414062 4.40625 -7.875 C 3.96875 -7.332031 3.75 -6.5 3.75 -5.375 C 3.75 -4.269531 3.96875 -3.445312 4.40625 -2.90625 C 4.851562 -2.363281 5.476562 -2.09375 6.28125 -2.09375 C 6.863281 -2.09375 7.359375 -2.25 7.765625 -2.5625 C 8.171875 -2.875 8.460938 -3.328125 8.640625 -3.921875 L 8.84375 -3.953125 L 10.765625 -2.890625 C 10.492188 -1.984375 9.988281 -1.238281 9.25 -0.65625 C 8.507812 -0.0820312 7.519531 0.203125 6.28125 0.203125 Z M 6.28125 0.203125 "/></g></g></g><g fill="#000000" fill-opacity="1"><g transform="translate(150.449625, 238.882602)"><g><path d="M 10.640625 -4.78125 L 3.734375 -4.75 C 3.804688 -3.820312 4.066406 -3.144531 4.515625 -2.71875 C 4.972656 -2.300781 5.597656 -2.09375 6.390625 -2.09375 C 7.003906 -2.09375 7.503906 -2.207031 7.890625 -2.4375 C 8.273438 -2.664062 8.582031 -3.015625 8.8125 -3.484375 L 9.03125 -3.484375 L 10.828125 -2.328125 C 10.472656 -1.578125 9.941406 -0.96875 9.234375 -0.5 C 8.523438 -0.03125 7.578125 0.203125 6.390625 0.203125 C 5.273438 0.203125 4.3125 -0.00390625 3.5 -0.421875 C 2.6875 -0.847656 2.0625 -1.476562 1.625 -2.3125 C 1.1875 -3.15625 0.96875 -4.175781 0.96875 -5.375 C 0.96875 -6.601562 1.195312 -7.632812 1.65625 -8.46875 C 2.125 -9.3125 2.75 -9.941406 3.53125 -10.359375 C 4.320312 -10.773438 5.207031 -10.984375 6.1875 -10.984375 C 7.71875 -10.984375 8.882812 -10.578125 9.6875 -9.765625 C 10.5 -8.960938 10.90625 -7.78125 10.90625 -6.21875 C 10.90625 -5.644531 10.882812 -5.203125 10.84375 -4.890625 Z M 8.328125 -6.53125 C 8.296875 -7.34375 8.101562 -7.9375 7.75 -8.3125 C 7.394531 -8.6875 6.875 -8.875 6.1875 -8.875 C 4.820312 -8.875 4.019531 -8.09375 3.78125 -6.53125 Z M 8.328125 -6.53125 "/></g></g></g><g fill="#000000" fill-opacity="1"><g transform="translate(162.154034, 238.882602)"><g/></g></g><g fill="#000000" fill-opacity="1"><g transform="translate(166.868988, 238.882602)"><g><path d="M 5.78125 0 L 2.953125 0 L 0.390625 -10.765625 L 2.90625 -10.765625 L 4.484375 -3.484375 L 4.6875 -3.484375 L 6.734375 -10.765625 L 9.078125 -10.765625 L 11.203125 -3.484375 L 11.40625 -3.484375 L 12.9375 -10.765625 L 15.375 -10.765625 L 12.84375 0 L 10 0 L 7.953125 -7.328125 L 7.75 -7.328125 Z M 5.78125 0 "/></g></g></g><g fill="#000000" fill-opacity="1"><g transform="translate(182.614787, 238.882602)"><g><path d="M 10.640625 -4.78125 L 3.734375 -4.75 C 3.804688 -3.820312 4.066406 -3.144531 4.515625 -2.71875 C 4.972656 -2.300781 5.597656 -2.09375 6.390625 -2.09375 C 7.003906 -2.09375 7.503906 -2.207031 7.890625 -2.4375 C 8.273438 -2.664062 8.582031 -3.015625 8.8125 -3.484375 L 9.03125 -3.484375 L 10.828125 -2.328125 C 10.472656 -1.578125 9.941406 -0.96875 9.234375 -0.5 C 8.523438 -0.03125 7.578125 0.203125 6.390625 0.203125 C 5.273438 0.203125 4.3125 -0.00390625 3.5 -0.421875 C 2.6875 -0.847656 2.0625 -1.476562 1.625 -2.3125 C 1.1875 -3.15625 0.96875 -4.175781 0.96875 -5.375 C 0.96875 -6.601562 1.195312 -7.632812 1.65625 -8.46875 C 2.125 -9.3125 2.75 -9.941406 3.53125 -10.359375 C 4.320312 -10.773438 5.207031 -10.984375 6.1875 -10.984375 C 7.71875 -10.984375 8.882812 -10.578125 9.6875 -9.765625 C 10.5 -8.960938 10.90625 -7.78125 10.90625 -6.21875 C 10.90625 -5.644531 10.882812 -5.203125 10.84375 -4.890625 Z M 8.328125 -6.53125 C 8.296875 -7.34375 8.101562 -7.9375 7.75 -8.3125 C 7.394531 -8.6875 6.875 -8.875 6.1875 -8.875 C 4.820312 -8.875 4.019531 -8.09375 3.78125 -6.53125 Z M 8.328125 -6.53125 "/></g></g></g><g fill="#000000" fill-opacity="1"><g transform="translate(194.319197, 238.882602)"><g><path d="M 7.53125 0.203125 C 6.15625 0.203125 5.132812 -0.3125 4.46875 -1.34375 L 4.265625 -1.296875 L 4.265625 0 L 1.546875 0 L 1.546875 -15.09375 L 4.265625 -15.09375 L 4.265625 -9.5 L 4.46875 -9.46875 C 4.832031 -9.976562 5.265625 -10.359375 5.765625 -10.609375 C 6.273438 -10.859375 6.882812 -10.984375 7.59375 -10.984375 C 8.457031 -10.984375 9.210938 -10.773438 9.859375 -10.359375 C 10.515625 -9.953125 11.023438 -9.328125 11.390625 -8.484375 C 11.753906 -7.648438 11.9375 -6.613281 11.9375 -5.375 C 11.9375 -4.15625 11.75 -3.125 11.375 -2.28125 C 11 -1.445312 10.476562 -0.820312 9.8125 -0.40625 C 9.144531 0 8.382812 0.203125 7.53125 0.203125 Z M 6.703125 -2.09375 C 7.503906 -2.09375 8.113281 -2.359375 8.53125 -2.890625 C 8.945312 -3.421875 9.15625 -4.25 9.15625 -5.375 C 9.15625 -6.519531 8.945312 -7.359375 8.53125 -7.890625 C 8.113281 -8.421875 7.503906 -8.6875 6.703125 -8.6875 C 5.941406 -8.6875 5.335938 -8.410156 4.890625 -7.859375 C 4.453125 -7.316406 4.234375 -6.488281 4.234375 -5.375 C 4.234375 -4.269531 4.453125 -3.445312 4.890625 -2.90625 C 5.335938 -2.363281 5.941406 -2.09375 6.703125 -2.09375 Z M 6.703125 -2.09375 "/></g></g></g><g clip-path="url(#bc04245970)"><g clip-path="url(#286f1d8440)"><path fill="#000000" d="M 79.90625 275.039062 C 78.730469 274.257812 77.570312 273.445312 76.433594 272.613281 C 75.292969 271.777344 74.171875 270.914062 73.070312 270.03125 C 71.96875 269.144531 70.890625 268.234375 69.828125 267.296875 C 68.769531 266.363281 67.730469 265.40625 66.714844 264.421875 C 65.699219 263.441406 64.707031 262.4375 63.734375 261.410156 C 62.761719 260.382812 61.816406 259.335938 60.890625 258.265625 C 59.96875 257.195312 59.070312 256.105469 58.195312 254.996094 C 57.320312 253.886719 56.472656 252.757812 55.648438 251.609375 C 54.824219 250.460938 54.027344 249.292969 53.257812 248.109375 C 52.488281 246.921875 51.746094 245.722656 51.027344 244.503906 C 50.3125 243.285156 49.625 242.050781 48.964844 240.800781 C 48.304688 239.550781 47.671875 238.289062 47.066406 237.011719 C 46.464844 235.734375 45.890625 234.441406 45.347656 233.136719 C 44.800781 231.832031 44.285156 230.519531 43.800781 229.191406 C 43.316406 227.863281 42.859375 226.527344 42.433594 225.179688 C 42.011719 223.832031 41.617188 222.472656 41.253906 221.109375 C 40.890625 219.742188 40.558594 218.367188 40.253906 216.988281 C 39.953125 215.609375 39.683594 214.222656 39.445312 212.828125 C 39.207031 211.433594 39 210.039062 38.824219 208.636719 C 38.648438 207.234375 38.503906 205.828125 38.394531 204.417969 C 38.28125 203.007812 38.199219 201.597656 38.152344 200.1875 C 38.105469 198.773438 38.089844 197.363281 38.105469 195.949219 C 38.121094 194.535156 38.167969 193.125 38.246094 191.710938 C 38.328125 190.300781 38.4375 188.894531 38.582031 187.488281 C 38.726562 186.082031 38.898438 184.679688 39.105469 183.28125 C 39.3125 181.882812 39.550781 180.492188 39.820312 179.101562 C 40.089844 177.714844 40.390625 176.335938 40.722656 174.960938 C 41.054688 173.589844 41.417969 172.222656 41.8125 170.867188 C 42.207031 169.507812 42.632812 168.160156 43.085938 166.824219 C 43.539062 165.484375 44.027344 164.15625 44.539062 162.839844 C 45.054688 161.523438 45.597656 160.222656 46.171875 158.929688 C 46.746094 157.636719 47.347656 156.359375 47.980469 155.097656 C 48.613281 153.832031 49.273438 152.582031 49.960938 151.347656 C 50.648438 150.113281 51.363281 148.894531 52.109375 147.695312 C 52.851562 146.492188 53.621094 145.308594 54.417969 144.140625 C 55.214844 142.972656 56.035156 141.824219 56.886719 140.695312 C 57.734375 139.5625 58.609375 138.453125 59.507812 137.363281 C 60.40625 136.273438 61.328125 135.203125 62.277344 134.15625 C 63.222656 133.105469 64.195312 132.078125 65.1875 131.074219 C 66.179688 130.070312 67.195312 129.085938 68.234375 128.128906 C 69.273438 127.167969 70.332031 126.234375 71.414062 125.324219 C 72.492188 124.414062 73.59375 123.527344 74.714844 122.664062 C 75.835938 121.804688 76.972656 120.96875 78.132812 120.160156 C 79.289062 119.347656 80.464844 118.566406 81.660156 117.808594 C 82.851562 117.050781 84.0625 116.324219 85.289062 115.621094 C 86.515625 114.917969 87.757812 114.246094 89.015625 113.601562 C 90.273438 112.953125 91.542969 112.335938 92.828125 111.75 C 94.113281 111.160156 95.410156 110.601562 96.722656 110.074219 C 98.03125 109.542969 99.355469 109.042969 100.6875 108.574219 C 102.019531 108.105469 103.363281 107.664062 104.714844 107.257812 C 106.066406 106.847656 107.429688 106.46875 108.796875 106.121094 C 110.167969 105.773438 111.546875 105.457031 112.929688 105.171875 C 114.3125 104.886719 115.703125 104.632812 117.097656 104.410156 C 118.496094 104.1875 119.894531 103.996094 121.300781 103.839844 C 122.703125 103.679688 124.109375 103.554688 125.519531 103.457031 C 126.929688 103.363281 128.339844 103.296875 129.753906 103.265625 C 131.167969 103.234375 132.582031 103.234375 133.992188 103.269531 C 135.40625 103.300781 136.816406 103.363281 138.226562 103.460938 C 139.636719 103.558594 141.042969 103.683594 142.449219 103.84375 C 143.851562 104.003906 145.253906 104.195312 146.648438 104.417969 C 148.042969 104.640625 149.433594 104.898438 150.816406 105.183594 C 152.199219 105.46875 153.578125 105.785156 154.949219 106.132812 C 156.316406 106.480469 157.679688 106.859375 159.03125 107.269531 C 160.382812 107.679688 161.726562 108.121094 163.058594 108.589844 C 163.699219 108.816406 164.308594 109.101562 164.890625 109.445312 C 165.472656 109.792969 166.015625 110.191406 166.519531 110.644531 C 167.023438 111.097656 167.480469 111.59375 167.886719 112.136719 C 168.292969 112.679688 168.640625 113.253906 168.933594 113.867188 C 169.226562 114.476562 169.457031 115.109375 169.625 115.765625 C 169.792969 116.421875 169.894531 117.089844 169.929688 117.765625 C 169.964844 118.441406 169.9375 119.117188 169.839844 119.785156 C 169.742188 120.457031 169.582031 121.113281 169.355469 121.75 C 169.128906 122.390625 168.84375 123 168.5 123.582031 C 168.152344 124.164062 167.753906 124.707031 167.300781 125.210938 C 166.847656 125.714844 166.351562 126.171875 165.808594 126.578125 C 165.265625 126.980469 164.6875 127.332031 164.078125 127.621094 C 163.464844 127.914062 162.832031 128.144531 162.175781 128.3125 C 161.519531 128.480469 160.851562 128.582031 160.175781 128.617188 C 159.5 128.652344 158.828125 128.621094 158.15625 128.523438 C 157.484375 128.425781 156.832031 128.265625 156.191406 128.039062 C 154.113281 127.304688 152.003906 126.667969 149.867188 126.121094 C 147.726562 125.578125 145.570312 125.132812 143.390625 124.785156 C 141.214844 124.4375 139.023438 124.1875 136.824219 124.039062 C 134.625 123.886719 132.421875 123.835938 130.214844 123.886719 C 128.011719 123.9375 125.8125 124.085938 123.621094 124.332031 C 121.429688 124.582031 119.253906 124.929688 117.089844 125.371094 C 114.929688 125.816406 112.796875 126.359375 110.683594 127 C 108.574219 127.636719 106.496094 128.367188 104.449219 129.195312 C 102.40625 130.023438 100.402344 130.9375 98.4375 131.945312 C 96.476562 132.953125 94.5625 134.050781 92.703125 135.230469 C 90.839844 136.410156 89.03125 137.671875 87.285156 139.015625 C 85.535156 140.363281 83.851562 141.78125 82.230469 143.277344 C 80.609375 144.777344 79.058594 146.34375 77.582031 147.980469 C 76.101562 149.617188 74.703125 151.316406 73.378906 153.078125 C 72.050781 154.84375 70.808594 156.664062 69.652344 158.539062 C 68.492188 160.414062 67.417969 162.339844 66.433594 164.3125 C 65.445312 166.285156 64.550781 168.300781 63.746094 170.355469 C 62.945312 172.410156 62.234375 174.496094 61.621094 176.613281 C 61.003906 178.730469 60.488281 180.875 60.066406 183.039062 C 59.644531 185.203125 59.324219 187.382812 59.101562 189.578125 C 58.875 191.773438 58.753906 193.972656 58.726562 196.179688 C 58.703125 198.382812 58.777344 200.585938 58.953125 202.785156 C 59.128906 204.984375 59.402344 207.171875 59.773438 209.34375 C 60.144531 211.519531 60.617188 213.671875 61.183594 215.800781 C 61.75 217.933594 62.414062 220.035156 63.171875 222.105469 C 63.929688 224.179688 64.777344 226.210938 65.71875 228.207031 C 66.660156 230.203125 67.691406 232.148438 68.808594 234.050781 C 69.925781 235.953125 71.128906 237.800781 72.414062 239.59375 C 73.699219 241.386719 75.0625 243.117188 76.503906 244.785156 C 77.945312 246.457031 79.457031 248.054688 81.042969 249.589844 C 82.632812 251.121094 84.285156 252.578125 86.003906 253.960938 C 87.71875 255.34375 89.496094 256.648438 91.332031 257.871094 C 91.898438 258.246094 92.417969 258.671875 92.898438 259.148438 C 93.378906 259.625 93.808594 260.148438 94.183594 260.710938 C 94.5625 261.273438 94.878906 261.867188 95.140625 262.492188 C 95.402344 263.117188 95.597656 263.761719 95.730469 264.425781 C 95.863281 265.085938 95.929688 265.757812 95.933594 266.433594 C 95.933594 267.113281 95.871094 267.785156 95.738281 268.449219 C 95.609375 269.113281 95.414062 269.757812 95.15625 270.382812 C 94.898438 271.007812 94.582031 271.605469 94.207031 272.167969 C 93.832031 272.730469 93.402344 273.253906 92.925781 273.734375 C 92.449219 274.210938 91.929688 274.640625 91.367188 275.019531 C 90.804688 275.394531 90.210938 275.714844 89.585938 275.972656 C 88.960938 276.234375 88.316406 276.433594 87.652344 276.566406 C 86.988281 276.699219 86.316406 276.765625 85.640625 276.765625 C 84.960938 276.769531 84.292969 276.703125 83.628906 276.574219 C 82.960938 276.441406 82.316406 276.246094 81.691406 275.988281 C 81.066406 275.730469 80.46875 275.414062 79.90625 275.039062 Z M 79.90625 275.039062 " fill-opacity="1" fill-rule="nonzero"/></g></g><g clip-path="url(#5bd54ebac6)"><g clip-path="url(#15653b07a5)"><path fill="#ff1616" d="M 79.90625 275.039062 C 78.398438 274.035156 76.917969 272.984375 75.46875 271.894531 C 74.019531 270.804688 72.601562 269.671875 71.21875 268.5 C 69.835938 267.324219 68.484375 266.113281 67.171875 264.863281 C 65.859375 263.609375 64.582031 262.324219 63.34375 260.996094 C 62.105469 259.671875 60.90625 258.3125 59.75 256.914062 C 58.589844 255.519531 57.472656 254.09375 56.394531 252.632812 C 55.316406 251.171875 54.285156 249.683594 53.292969 248.164062 C 52.304688 246.644531 51.359375 245.097656 50.457031 243.519531 C 49.558594 241.945312 48.703125 240.347656 47.898438 238.722656 C 47.089844 237.097656 46.332031 235.453125 45.617188 233.78125 C 44.90625 232.113281 44.242188 230.425781 43.628906 228.71875 C 43.015625 227.011719 42.453125 225.289062 41.9375 223.550781 C 41.425781 221.808594 40.960938 220.054688 40.550781 218.289062 C 40.136719 216.523438 39.777344 214.746094 39.46875 212.957031 C 39.160156 211.171875 38.902344 209.375 38.695312 207.574219 C 38.492188 205.769531 38.339844 203.964844 38.242188 202.152344 C 38.140625 200.34375 38.09375 198.527344 38.097656 196.714844 C 38.105469 194.902344 38.160156 193.089844 38.273438 191.277344 C 38.382812 189.46875 38.546875 187.660156 38.761719 185.859375 C 38.976562 184.058594 39.246094 182.265625 39.5625 180.480469 C 39.882812 178.695312 40.253906 176.917969 40.675781 175.15625 C 41.101562 173.390625 41.574219 171.640625 42.097656 169.902344 C 42.621094 168.167969 43.195312 166.449219 43.820312 164.746094 C 44.445312 163.039062 45.117188 161.355469 45.839844 159.691406 C 46.558594 158.027344 47.328125 156.386719 48.144531 154.765625 C 48.964844 153.148438 49.828125 151.554688 50.738281 149.984375 C 51.644531 148.414062 52.601562 146.871094 53.597656 145.359375 C 54.597656 143.84375 55.640625 142.359375 56.726562 140.90625 C 57.8125 139.453125 58.9375 138.03125 60.105469 136.644531 C 61.273438 135.253906 62.480469 133.902344 63.726562 132.585938 C 64.972656 131.265625 66.257812 129.984375 67.578125 128.742188 C 68.898438 127.5 70.253906 126.292969 71.644531 125.128906 C 72.164062 124.695312 72.71875 124.3125 73.3125 123.988281 C 73.90625 123.664062 74.527344 123.398438 75.171875 123.195312 C 75.820312 122.992188 76.480469 122.855469 77.152344 122.78125 C 77.824219 122.707031 78.5 122.703125 79.171875 122.761719 C 79.847656 122.820312 80.511719 122.945312 81.160156 123.136719 C 81.808594 123.324219 82.433594 123.578125 83.035156 123.890625 C 83.636719 124.203125 84.199219 124.574219 84.726562 124.996094 C 85.253906 125.421875 85.738281 125.894531 86.171875 126.410156 C 86.605469 126.929688 86.988281 127.488281 87.3125 128.082031 C 87.636719 128.675781 87.902344 129.296875 88.105469 129.941406 C 88.308594 130.585938 88.445312 131.246094 88.519531 131.917969 C 88.589844 132.59375 88.597656 133.265625 88.539062 133.941406 C 88.480469 134.617188 88.355469 135.277344 88.164062 135.929688 C 87.976562 136.578125 87.722656 137.203125 87.410156 137.804688 C 87.097656 138.402344 86.726562 138.96875 86.304688 139.496094 C 85.878906 140.023438 85.40625 140.503906 84.890625 140.9375 C 83.804688 141.847656 82.746094 142.789062 81.714844 143.757812 C 80.6875 144.726562 79.6875 145.726562 78.714844 146.753906 C 77.742188 147.78125 76.800781 148.839844 75.890625 149.921875 C 74.976562 151.003906 74.097656 152.113281 73.253906 153.246094 C 72.40625 154.378906 71.59375 155.535156 70.8125 156.71875 C 70.035156 157.898438 69.289062 159.101562 68.582031 160.324219 C 67.871094 161.550781 67.199219 162.792969 66.5625 164.058594 C 65.921875 165.320312 65.324219 166.601562 64.761719 167.898438 C 64.199219 169.195312 63.671875 170.511719 63.1875 171.839844 C 62.699219 173.167969 62.25 174.507812 61.84375 175.863281 C 61.433594 177.21875 61.0625 178.582031 60.734375 179.960938 C 60.40625 181.335938 60.117188 182.71875 59.867188 184.113281 C 59.617188 185.507812 59.410156 186.90625 59.242188 188.308594 C 59.074219 189.714844 58.945312 191.125 58.859375 192.535156 C 58.773438 193.949219 58.726562 195.363281 58.722656 196.777344 C 58.71875 198.191406 58.757812 199.605469 58.835938 201.019531 C 58.910156 202.429688 59.03125 203.839844 59.191406 205.246094 C 59.351562 206.652344 59.550781 208.050781 59.792969 209.445312 C 60.03125 210.839844 60.3125 212.226562 60.636719 213.605469 C 60.957031 214.984375 61.316406 216.351562 61.71875 217.707031 C 62.117188 219.0625 62.558594 220.410156 63.039062 221.738281 C 63.515625 223.070312 64.035156 224.386719 64.589844 225.6875 C 65.144531 226.992188 65.738281 228.273438 66.367188 229.542969 C 66.996094 230.808594 67.664062 232.054688 68.363281 233.285156 C 69.066406 234.511719 69.804688 235.71875 70.578125 236.90625 C 71.347656 238.089844 72.15625 239.253906 72.996094 240.390625 C 73.835938 241.53125 74.707031 242.644531 75.609375 243.734375 C 76.515625 244.820312 77.449219 245.882812 78.417969 246.917969 C 79.382812 247.949219 80.378906 248.953125 81.402344 249.929688 C 82.425781 250.90625 83.476562 251.851562 84.558594 252.769531 C 85.636719 253.683594 86.742188 254.566406 87.871094 255.417969 C 89 256.269531 90.15625 257.085938 91.332031 257.871094 C 91.898438 258.246094 92.417969 258.671875 92.898438 259.148438 C 93.378906 259.625 93.808594 260.148438 94.183594 260.710938 C 94.5625 261.273438 94.878906 261.867188 95.140625 262.492188 C 95.402344 263.117188 95.597656 263.761719 95.730469 264.425781 C 95.863281 265.085938 95.929688 265.757812 95.933594 266.433594 C 95.933594 267.113281 95.871094 267.785156 95.738281 268.449219 C 95.609375 269.113281 95.414062 269.757812 95.15625 270.382812 C 94.898438 271.007812 94.582031 271.605469 94.207031 272.167969 C 93.832031 272.730469 93.402344 273.253906 92.925781 273.734375 C 92.449219 274.210938 91.929688 274.640625 91.367188 275.019531 C 90.804688 275.394531 90.210938 275.714844 89.585938 275.972656 C 88.960938 276.234375 88.316406 276.433594 87.652344 276.566406 C 86.988281 276.699219 86.316406 276.765625 85.640625 276.765625 C 84.960938 276.769531 84.292969 276.703125 83.628906 276.574219 C 82.960938 276.441406 82.316406 276.246094 81.691406 275.988281 C 81.066406 275.730469 80.46875 275.414062 79.90625 275.039062 Z M 79.90625 275.039062 " fill-opacity="1" fill-rule="nonzero"/></g></g></svg>