<svg xmlns="http://www.w3.org/2000/svg" height="36" width="138.46153846153845" viewBox="80 150 250 65"><path d="M102.525 210.508c20.239 0 29.438-11.84 29.438-27.2 0-15.359-9.278-27.199-29.438-27.199h-12.96c-1.04 0-1.598.563-1.598 1.602v51.195c0 1.043.558 1.602 1.597 1.602Zm-2.558-43.516h3.68c11.68 0 16.316 7.277 16.316 16.316 0 9.04-4.719 16.32-16.317 16.32h-3.68ZM165.399 157.39c-.32-.8-.961-1.28-1.84-1.28h-7.438c-.882 0-1.52.48-1.84 1.28l-20.64 54.72c9.121-1.602 16.039-6.923 19.879-19.321 1.8 4.039 6.039 6.758 12.52 6.758h2.917l3.16 9.68c.32.96.883 1.28 1.762 1.28h9.52c.879 0 1.441-.48 1.441-1.199 0-.16-.082-.402-.16-.64Zm-5.52 14.559 5.84 17.762h-11.238Zm0 0"></path><path d="M204.033 210.508c20.238 0 29.438-11.84 29.438-27.2 0-15.359-9.278-27.199-29.438-27.199h-12.96c-1.04 0-1.598.563-1.598 1.602v51.195c0 1.043.558 1.602 1.597 1.602Zm-2.558-43.516h3.68c11.679 0 16.316 7.277 16.316 16.316 0 9.04-4.72 16.32-16.317 16.32h-3.68ZM258.348 173.949c-11.84 0-20.559 7.441-20.559 18.961 0 11.68 8.399 18.879 20.559 18.879 8.8 0 15.758-3.84 18.559-11.84.398-1.121-.239-1.84-1.36-1.84h-8.879c-.883 0-1.36.48-1.761 1.36-.961 2.16-3.278 3.757-6.797 3.757-4.48 0-7.282-3.199-7.602-8.078h25.758c1.039 0 1.601-.558 1.601-1.597v-1.442c0-11.68-8.8-18.16-19.52-18.16Zm-7.68 14.719c.68-3.84 2.84-6.559 7.282-6.559 4.238 0 6.957 2.719 7.199 6.559ZM306.743 210.508c.88 0 1.52-.48 1.84-1.282l13.2-34.796c-8.239 0-13.52 4.082-16.481 13.039l-4.32 12.96-7.996-23.917c-.32-.883-.883-1.282-1.762-1.282h-8.719c-1.2 0-1.68.719-1.281 1.84l12.238 32.156c.32.801.961 1.282 1.84 1.282Zm0 0" fill="#ff1616"></path></svg>